<?xml version="1.0" standalone="no"?><!DOCTYPE svg PUBLIC "-//W3C//DTD SVG 1.1//EN" "http://www.w3.org/Graphics/SVG/1.1/DTD/svg11.dtd"><svg t="1706791553451" class="icon" viewBox="0 0 1024 1024" version="1.1" xmlns="http://www.w3.org/2000/svg" p-id="1123" xmlns:xlink="http://www.w3.org/1999/xlink" width="200" height="200"><path d="M303.06304 334.19264c76.09344 31.0272 142.57152 75.264 199.424 132.70016 94.18752-68.5056 165.67296-112.73216 214.46656-132.70016C765.7472 314.22464 830.54592 302.6944 911.36 299.56096v463.07328c-77.94688 6.4-142.7456 17.70496-194.4064 33.90464C665.2928 812.73856 593.80736 844.1856 502.48704 890.88c-67.92192-42.56768-134.4-74.01472-199.424-94.34112-65.024-20.3264-135.3216-31.62112-210.90304-33.90464V299.56096c64.512-7.936 134.8096 3.60448 210.90304 34.63168zM172.21632 188.24192c70.656 19.39456 134.4 50.41152 191.20128 93.04064 56.80128 42.62912 102.912 99.51232 138.3424 170.6496-51.26144-65.9456-99.90144-109.89568-145.89952-131.85024-46.00832-21.94432-107.2128-42.05568-183.64416-60.33408z m659.28192 0v71.50592c-76.43136 18.2784-137.64608 38.38976-183.64416 60.33408-46.00832 21.95456-94.63808 65.90464-145.89952 131.85024 35.42016-71.13728 81.53088-128.02048 138.3424-170.6496 56.80128-42.62912 120.53504-73.64608 191.20128-93.04064zM270.42816 143.36c49.17248 19.38432 91.3408 51.39456 126.52544 96.03072S467.06688 350.95552 501.76 440.17664c-39.75168-74.52672-80.06656-128.8192-120.94464-162.89792-40.88832-34.06848-77.68064-62.3104-110.3872-84.736V143.36z m462.87872 0v49.18272c-32.70656 22.4256-69.49888 50.66752-110.3872 84.736-40.87808 34.06848-81.2032 88.3712-120.94464 162.89792 34.69312-89.22112 69.632-156.16 104.8064-200.78592 35.18464-44.63616 77.35296-76.6464 126.52544-96.03072z" p-id="1124" fill="#1296db"></path></svg>