<?xml version="1.0" standalone="no"?><!DOCTYPE svg PUBLIC "-//W3C//DTD SVG 1.1//EN" "http://www.w3.org/Graphics/SVG/1.1/DTD/svg11.dtd"><svg t="1706793398946" class="icon" viewBox="0 0 1024 1024" version="1.1" xmlns="http://www.w3.org/2000/svg" p-id="1301" xmlns:xlink="http://www.w3.org/1999/xlink" width="200" height="200"><path d="M515.5 511.5m-434.5 0a434.5 434.5 0 1 0 869 0 434.5 434.5 0 1 0-869 0Z" fill="#F45A31" p-id="1302"></path><path d="M487.05 351.51A65.48 65.48 0 0 0 427 291.46q-19.47-1.56-39-1.56t-39 1.56a65.47 65.47 0 0 0-60 60.05q-1.56 19.47-1.56 39t1.56 39a65.46 65.46 0 0 0 60 60.04q19.53 1.56 39.11 1.56t38.89-1.56a65.47 65.47 0 0 0 60.05-60.05q1.56-19.47 1.56-39t-1.56-39zM544.8 433.44q12.86 15.07 26.85 29.08t28.91 26.68a66.2 66.2 0 0 0 85.87 0q15-12.81 29-26.77t26.77-29a66.2 66.2 0 0 0 0-85.87q-12.81-15-26.77-29t-29-26.77a66.2 66.2 0 0 0-85.87 0q-15 12.81-29 26.77t-26.77 29a66.2 66.2 0 0 0 0 85.87zM487.05 607A65.48 65.48 0 0 0 427 547q-19.47-1.55-39-1.55T349 547a65.47 65.47 0 0 0-60 60q-1.56 19.46-1.56 39t1.56 39a65.47 65.47 0 0 0 60 60.05q19.53 1.56 39.11 1.55t38.89-1.55A65.48 65.48 0 0 0 487.05 685q1.56-19.46 1.56-39t-1.56-39zM742.54 607a65.47 65.47 0 0 0-60-60.06q-19.47-1.55-39-1.55t-39 1.55a65.48 65.48 0 0 0-60 60.06q-1.56 19.46-1.56 39t1.56 39a65.48 65.48 0 0 0 60 60.06q19.53 1.56 39.11 1.55t38.88-1.55a65.47 65.47 0 0 0 60-60.06q1.56-19.46 1.56-39t-1.56-39z" fill="#FFFFFF" p-id="1303"></path></svg>