<?xml version="1.0" standalone="no"?><!DOCTYPE svg PUBLIC "-//W3C//DTD SVG 1.1//EN" "http://www.w3.org/Graphics/SVG/1.1/DTD/svg11.dtd"><svg t="1706792003377" class="icon" viewBox="0 0 1024 1024" version="1.1" xmlns="http://www.w3.org/2000/svg" p-id="1273" data-spm-anchor-id="a313x.collections_detail.0.i3.d56f3a817TJ9QN" xmlns:xlink="http://www.w3.org/1999/xlink" width="200" height="200"><path d="M142.222222 133.404444l62.833778 126.862223a78.478222 78.478222 0 0 0 70.542222 44.202666H756.053333a78.506667 78.506667 0 0 0 71.822223-46.990222L881.777778 135.566222v769.934222A33.223111 33.223111 0 0 1 848.725333 938.666667H175.274667A33.109333 33.109333 0 0 1 142.222222 905.500444V133.404444z m410.652445 408.348445a8.96 8.96 0 0 0-11.861334 2.389333l-9.187555 12.259556a9.216 9.216 0 0 1-8.704 3.612444 83.512889 83.512889 0 0 0-22.186667 0 9.244444 9.244444 0 0 1-8.704-3.612444l-9.187555-12.231111a8.96 8.96 0 0 0-11.861334-2.417778l-32.113778 19.342222a9.841778 9.841778 0 0 0-3.925333 11.918222l5.632 14.478223a10.097778 10.097778 0 0 1-1.365333 9.557333c-4.494222 6.200889-8.248889 12.970667-11.121778 20.138667a9.358222 9.358222 0 0 1-7.253333 5.973333l-14.848 2.190222a9.528889 9.528889 0 0 0-7.964445 9.557333v38.684445c0 4.778667 3.413333 8.817778 7.936 9.500444l14.848 2.161778c3.299556 0.483556 5.973333 2.844444 7.253334 5.973333 2.901333 7.196444 6.656 13.937778 11.121777 20.195556 1.991111 2.730667 2.616889 6.343111 1.365334 9.528889l-5.632 14.506667a9.784889 9.784889 0 0 0 3.925333 11.918222l32.113778 19.342222c3.982222 2.389333 9.045333 1.365333 11.861333-2.417778l9.187556-12.259555a9.216 9.216 0 0 1 8.704-3.612445 83.740444 83.740444 0 0 0 22.186666 0 9.216 9.216 0 0 1 8.704 3.612445l9.187556 12.231111c2.816 3.811556 7.879111 4.835556 11.861333 2.417778l32.113778-19.342223a9.841778 9.841778 0 0 0 3.925333-11.918222l-5.632-14.478222a10.126222 10.126222 0 0 1 1.365334-9.557333c4.494222-6.200889 8.248889-12.970667 11.093333-20.138667a9.358222 9.358222 0 0 1 7.281778-5.973333l14.848-2.190223A9.500444 9.500444 0 0 0 625.777778 673.564444v-38.684444a9.386667 9.386667 0 0 0-7.907556-9.500444l-14.848-2.161778a9.443556 9.443556 0 0 1-7.253333-5.973334 95.914667 95.914667 0 0 0-11.121778-20.195555 10.097778 10.097778 0 0 1-1.365333-9.528889l5.632-14.506667a9.784889 9.784889 0 0 0-3.953778-11.946666zM515.413333 618.666667c19.712 0 35.669333 16.725333 35.669334 37.347555 0 20.593778-15.957333 37.319111-35.669334 37.319111-19.683556 0-35.640889-16.725333-35.640889-37.319111 0-20.622222 15.957333-37.347556 35.640889-37.347555z m-1.308444-272.782223c-22.840889 0-41.329778 18.574222-41.329778 41.472 0 22.897778 18.488889 41.443556 41.329778 41.443556 22.812444 0 41.301333-18.545778 41.301333-41.443556s-18.488889-41.443556-41.301333-41.443555z m0 24.888889a16.554667 16.554667 0 1 1-0.056889 33.109334 16.554667 16.554667 0 0 1 0.056889-33.109334zM862.435556 113.777778l-57.230223 133.688889a53.703111 53.703111 0 0 1-49.152 32.142222H275.569778c-20.508444 0-39.253333-11.747556-48.241778-30.264889L164.295111 113.777778H862.435556zM514.076444 163.527111c-22.840889 0-41.329778 18.545778-41.329777 41.443556s18.488889 41.443556 41.329777 41.443555c22.812444 0 41.301333-18.545778 41.301334-41.443555s-18.488889-41.443556-41.301334-41.443556z m0 24.860445a16.554667 16.554667 0 1 1-0.056888 33.109333 16.554667 16.554667 0 0 1 0.056888-33.109333z" p-id="1274" fill="#efb336"></path></svg>